<?xml version="1.0" encoding="utf-8"?>
<!-- Generator: Adobe Illustrator 19.1.1, SVG Export Plug-In . SVG Version: 6.00 Build 0)  -->
<svg version="1.1" xmlns="http://www.w3.org/2000/svg" xmlns:xlink="http://www.w3.org/1999/xlink" x="0px" y="0px"
	 viewBox="0 0 235 333" style="enable-background:new 0 0 235 333;" xml:space="preserve">
<style type="text/css">
	.st0{fill:#A01B17;}
	.st1{fill:url(#SVGID_1_);}
	.st2{fill:url(#SVGID_2_);}
	.st3{fill:url(#SVGID_3_);}
</style>
<g id="Ebene_1">
</g>
<g id="Ebene_2">
	<g>
		<g>
			<path d="M65.1,264h-22v13.5h18.7v8.8H43.1v23h-9.6v-54.1h31.6V264z"/>
			<path d="M65.4,304.1c0,7.5-10.9,7.6-10.9,0C54.5,296.9,65.4,297,65.4,304.1z"/>
			<path d="M74.8,293.5v-22.9c0-11.4,5-16.1,18-16.1s18.4,4.7,18.4,16.1v22.9c0,11.2-5.6,16.1-18.4,16.1S74.8,304.6,74.8,293.5z
				 M101.6,293v-21.9c0-4.9-1.3-8.1-8.8-8.1c-7,0-8.3,3.2-8.3,8.1V293c0,5.1,1.3,8.1,8.3,8.1S101.6,298.1,101.6,293z"/>
			<path d="M119.7,293.5v-22.9c0-11.4,5-16.1,18-16.1c13,0,18.4,4.7,18.4,16.1v22.9c0,11.2-5.6,16.1-18.4,16.1
				C124.9,309.6,119.7,304.6,119.7,293.5z M146.5,293v-21.9c0-4.9-1.3-8.1-8.8-8.1c-7,0-8.3,3.2-8.3,8.1V293c0,5.1,1.3,8.1,8.3,8.1
				C144.8,301.1,146.5,298.1,146.5,293z"/>
			<path d="M164.7,293.5v-22.9c0-11.4,5-16.1,18-16.1c13,0,18.4,4.7,18.4,16.1v22.9c0,11.2-5.6,16.1-18.4,16.1
				C169.9,309.6,164.7,304.6,164.7,293.5z M191.5,293v-21.9c0-4.9-1.3-8.1-8.8-8.1c-7,0-8.3,3.2-8.3,8.1V293c0,5.1,1.3,8.1,8.3,8.1
				C189.7,301.1,191.5,298.1,191.5,293z"/>
		</g>
		<g>
			<path d="M60.6,247.1l-15.2-21.7h-2.7v21.7h-9.6v-54h9.7v22.7h2.6l14.2-22.7h11.3l-17.6,27l19.2,27H60.6z"/>
			<path d="M103.1,193.2h9.7v37.9c0,11.2-6.8,16.5-18.2,16.5c-11.4,0-17.7-5.3-17.7-16.5v-37.9h9.7v37.5c0,5.1,2.2,8.4,8,8.4
				s8.5-3.3,8.5-8.4V193.2z"/>
			<path d="M156.2,247.1h-9.4L131,212.9l0.8,20.5v13.7h-9.6v-53.9h9.6l15.8,35.6l-1.1-22.8v-12.8h9.6V247.1z"/>
			<path d="M183.4,216.4h18.2v14c0,11.9-5.6,17-18.4,17c-12.8,0-18-5.1-18-16.8V209c0-11,5-16.1,18-16.1s18.4,4.6,18.4,16.1h-9.7
				c0-5-1.3-7.6-8.8-7.6c-7,0-8.3,3.2-8.3,8.1v21.2c0,5.1,1.3,8.1,8.3,8.1s9.5-2.9,9.5-8.3v-5.3h-9.2V216.4z"/>
		</g>
		<g>
			<polygon class="st0" points="92,155.1 92,69.2 72.6,88.5 72.6,174.5 			"/>
			<polygon class="st0" points="119,116.7 148.2,87.5 148.2,60.5 92,116.7 92,116.7 92,116.7 148.5,173.2 162,159.7 			"/>
			<linearGradient id="SVGID_1_" gradientUnits="userSpaceOnUse" x1="120.7591" y1="131.7945" x2="112.3132" y2="123.3486">
				<stop  offset="0" style="stop-color:#FFFFFF;stop-opacity:0"/>
				<stop  offset="8.927038e-002" style="stop-color:#E6CCC3;stop-opacity:0"/>
				<stop  offset="0.2252" style="stop-color:#C48878;stop-opacity:0"/>
				<stop  offset="0.3391" style="stop-color:#AC5A4B;stop-opacity:0"/>
				<stop  offset="0.4251" style="stop-color:#9E4033;stop-opacity:0"/>
				<stop  offset="0.4731" style="stop-color:#98362B;stop-opacity:0"/>
				<stop  offset="0.6694" style="stop-color:#8D241D;stop-opacity:0.3726"/>
				<stop  offset="0.853" style="stop-color:#871715;stop-opacity:0.7209"/>
				<stop  offset="1" style="stop-color:#841212"/>
			</linearGradient>
			<polygon class="st1" points="127.6,125 113.9,138.6 105.5,130.2 119.2,116.5 			"/>
			<polygon class="st0" points="161.7,26.5 134.7,26.5 92,69.2 92,69.2 92,69.2 148.5,125.7 162,112.2 119,69.2 			"/>
			<linearGradient id="SVGID_2_" gradientUnits="userSpaceOnUse" x1="143.8853" y1="107.6451" x2="135.4394" y2="99.1992">
				<stop  offset="0" style="stop-color:#FFFFFF;stop-opacity:0"/>
				<stop  offset="8.927038e-002" style="stop-color:#E6CCC3;stop-opacity:0"/>
				<stop  offset="0.2252" style="stop-color:#C48878;stop-opacity:0"/>
				<stop  offset="0.3391" style="stop-color:#AC5A4B;stop-opacity:0"/>
				<stop  offset="0.4251" style="stop-color:#9E4033;stop-opacity:0"/>
				<stop  offset="0.4731" style="stop-color:#98362B;stop-opacity:0"/>
				<stop  offset="0.6694" style="stop-color:#8D241D;stop-opacity:0.3726"/>
				<stop  offset="0.853" style="stop-color:#871715;stop-opacity:0.7209"/>
				<stop  offset="1" style="stop-color:#841212"/>
			</linearGradient>
			<polygon class="st2" points="150.7,100.8 137,114.5 128.6,106 142.3,92.4 			"/>
			<linearGradient id="SVGID_3_" gradientUnits="userSpaceOnUse" x1="120.7591" y1="84.4795" x2="112.3132" y2="76.0335">
				<stop  offset="0" style="stop-color:#FFFFFF;stop-opacity:0"/>
				<stop  offset="8.927038e-002" style="stop-color:#E6CCC3;stop-opacity:0"/>
				<stop  offset="0.2252" style="stop-color:#C48878;stop-opacity:0"/>
				<stop  offset="0.3391" style="stop-color:#AC5A4B;stop-opacity:0"/>
				<stop  offset="0.4251" style="stop-color:#9E4033;stop-opacity:0"/>
				<stop  offset="0.4731" style="stop-color:#98362B;stop-opacity:0"/>
				<stop  offset="0.6694" style="stop-color:#8D241D;stop-opacity:0.3726"/>
				<stop  offset="0.853" style="stop-color:#871715;stop-opacity:0.7209"/>
				<stop  offset="1" style="stop-color:#841212"/>
			</linearGradient>
			<polygon class="st3" points="127.6,77.6 113.9,91.3 105.5,82.9 119.2,69.2 			"/>
		</g>
	</g>
</g>
</svg>
